<?xml version="1.0" encoding="utf-8"?>
<!-- Generator: Adobe Illustrator 24.1.2, SVG Export Plug-In . SVG Version: 6.00 Build 0)  -->
<svg version="1.1" id="Capa_1" xmlns="http://www.w3.org/2000/svg" xmlns:xlink="http://www.w3.org/1999/xlink" x="0px" y="0px"
	 viewBox="0 0 295.88 228.51" enable-background="new 0 0 295.88 228.51" xml:space="preserve">
<path fill-rule="evenodd" clip-rule="evenodd" d="M36.6,185.96c0,0,127.27,21.66,202.43,21.66c17.12,0,35.56-2.12,35.56-2.12
	c4.05-0.34,4.76,4.6,4.76,4.6c-1.39,9.68-12.8,18.9-32.54,18.39C194.13,227.14,96.34,209.79,36.6,185.96L36.6,185.96z"/>
<path fill-rule="evenodd" clip-rule="evenodd" d="M0,169.92h285.28c5.83,0,4.15,21.86-21.2,26.13
	C236.42,200.7,55.52,185.59,0,169.92L0,169.92z"/>
<path fill-rule="evenodd" clip-rule="evenodd" d="M121.77,18.93C184.48-16.1,282.36-1.73,291.24,55.12
	c-72.25,0.19-98.8-0.28-98.8-0.28c-5.89,50.86,32.52,51.71,103.12,51.09c2.51,12.6-6.2,39.56-12.26,47.74
	c-10.65,0.65-197.59,0-197.59,0C85.71,153.67,141.17,78.08,121.77,18.93L121.77,18.93z"/>
</svg>
