<?xml version="1.0" encoding="utf-8"?>
<svg 
	id="acmotos-logotipo" 
	xmlns="http://www.w3.org/2000/svg" 
	viewBox="0 0 1317.96 228.54" 
	fill="currentColor"
	aria-hidden="true"
	focusable="false">
<path fill-rule="evenodd" clip-rule="evenodd" d="M1058.56,185.98c0,0,127.27,21.66,202.43,21.66c17.12,0,35.56-2.12,35.56-2.12
	c4.05-0.34,4.76,4.6,4.76,4.6c-1.39,9.68-12.8,18.9-32.54,18.39C1216.09,227.16,1118.3,209.81,1058.56,185.98L1058.56,185.98z"/>
<path fill-rule="evenodd" clip-rule="evenodd" d="M1021.96,169.94h285.28c5.83,0,4.15,21.86-21.2,26.13
	C1258.38,200.72,1077.48,185.61,1021.96,169.94L1021.96,169.94z"/>
<path fill-rule="evenodd" clip-rule="evenodd" d="M1143.73,18.95c62.71-35.03,160.59-20.66,169.47,36.19
	c-72.25,0.19-98.8-0.28-98.8-0.28c-5.89,50.86,32.52,51.71,103.12,51.09c2.51,12.6-6.2,39.56-12.26,47.74
	c-10.65,0.65-197.59,0-197.59,0S1163.13,78.1,1143.73,18.95L1143.73,18.95z"/>
<g>
	<path d="M25.18,153.67c-9.1,0-15.55-1.83-19.36-5.48c-3.8-3.65-5.71-8.54-5.71-14.66c0-4.62,0.74-9.43,2.24-14.43
		c1.49-5,3.5-9.66,6.04-13.98c3.88-6.56,8.91-11.64,15.1-15.22c6.19-3.58,14.21-5.37,24.05-5.37h70.49c0.9-3.28,1.34-6.12,1.34-8.5
		c0-3.28-1.08-5.52-3.24-6.71c-2.16-1.19-5.78-1.79-10.85-1.79H23.83l8.73-27.3h79.21c16.26,0,28.31,2.28,36.14,6.82
		c7.83,4.55,11.75,12.35,11.75,23.38c0,7.01-1.72,15.89-5.15,26.63l-18.35,56.61H25.18z M112.22,106.01H56.5
		c-5.97,0-10.59,2.09-13.87,6.27c-0.9,1.34-1.68,2.87-2.35,4.59c-0.67,1.72-1.01,3.47-1.01,5.26c0,2.68,2.01,4.03,6.04,4.03h60.19
		L112.22,106.01z"/>
	<path d="M206.2,153.67c-6.71,0-12.79-0.56-18.24-1.68c-5.45-1.12-10.07-2.94-13.87-5.48c-3.8-2.54-6.75-5.85-8.84-9.96
		c-2.09-4.1-3.13-9.06-3.13-14.88c0-8.06,1.42-16.15,4.25-24.28c2.83-8.13,6.34-15.78,10.52-22.94
		c7.61-12.68,17.01-21.56,28.19-26.63c11.19-5.07,23.79-7.61,37.82-7.61h72.05l-9.4,29.31h-62.43c-8.21,0-14.99,1.75-20.36,5.26
		c-5.37,3.51-9.7,8.39-12.98,14.66c-1.94,3.43-3.66,7.42-5.15,11.97c-1.49,4.55-2.24,8.99-2.24,13.31c0,3.43,1.23,5.89,3.69,7.38
		c2.46,1.49,6.52,2.24,12.19,2.24h69.37l-9.4,29.31H206.2z"/>
	<path d="M359.94,69.08l-27.31,84.59h-40.28l36.7-113.45h164.02c14.02,0,24.95,2.57,32.78,7.72c7.83,5.15,11.75,13.24,11.75,24.28
		c0,5.67-1.27,12.46-3.8,20.36l-19.69,61.09h-40.28l19.69-61.09c0.9-2.69,1.6-5.15,2.13-7.38c0.52-2.24,0.78-4.17,0.78-5.82
		c0-3.58-1.31-6.19-3.92-7.83c-2.61-1.64-7.05-2.46-13.31-2.46h-29.31l-27.3,84.58h-38.71l27.3-84.58h-38.94"/>
	<path d="M591.75,153.67c-16.71,0-29.31-3.02-37.82-9.06c-8.5-6.04-12.75-14.88-12.75-26.52c0-7.16,1.27-14.47,3.8-21.93
		c2.54-7.46,5.96-14.39,10.29-20.81c7.61-11.49,17.53-20.21,29.76-26.18c12.23-5.96,26.7-8.95,43.41-8.95h25.96
		c16.71,0,29.31,3.02,37.82,9.06c8.5,6.04,12.75,14.88,12.75,26.52c0,5.97-0.9,11.86-2.69,17.68s-4.18,11.71-7.16,17.68
		c-7.16,13.87-17.27,24.43-30.32,31.66c-13.06,7.24-28.75,10.85-47.1,10.85H591.75z M618.83,124.81c10.14,0,18.31-2.01,24.5-6.04
		c6.19-4.03,10.93-8.73,14.21-14.1c2.09-3.13,3.84-6.79,5.26-10.96c1.42-4.17,2.13-8.28,2.13-12.31s-1.68-7.08-5.03-9.17
		c-3.36-2.09-9.51-3.13-18.46-3.13h-16.11c-8.36,0-15.29,1.57-20.81,4.7c-5.52,3.13-10,7.01-13.43,11.64
		c-2.69,3.43-5,7.65-6.94,12.64c-1.94,5-2.91,9.88-2.91,14.66c0,3.88,1.57,6.86,4.7,8.95c3.13,2.09,8.73,3.13,16.78,3.13H618.83z"/>
	<path d="M752.86,153.67c-8.5,0-15.81-0.3-21.93-0.9c-6.12-0.59-11.11-1.68-14.99-3.24c-3.88-1.57-6.75-3.73-8.62-6.49
		c-1.87-2.76-2.8-6.23-2.8-10.41c0-4.92,1.27-11.33,3.8-19.24L745.25-0.05h40.73l-13.2,40.28h34.24l-8.73,27.3h-34.24l-14.32,43.63
		c-0.6,1.79-1.05,3.36-1.34,4.7c-0.3,1.34-0.45,2.61-0.45,3.8c0,2.54,0.93,4.33,2.8,5.37c1.86,1.05,4.96,1.57,9.29,1.57h16.33
		l-8.73,27.08H752.86z"/>
	<path d="M842.59,153.67c-16.71,0-29.31-3.02-37.82-9.06c-8.5-6.04-12.75-14.88-12.75-26.52c0-7.16,1.27-14.47,3.8-21.93
		c2.54-7.46,5.96-14.39,10.29-20.81c7.61-11.49,17.53-20.21,29.76-26.18c12.23-5.96,26.7-8.95,43.41-8.95h25.96
		c16.71,0,29.31,3.02,37.82,9.06c8.5,6.04,12.75,14.88,12.75,26.52c0,5.97-0.9,11.86-2.69,17.68s-4.18,11.71-7.16,17.68
		c-7.16,13.87-17.27,24.43-30.32,31.66c-13.06,7.24-28.75,10.85-47.1,10.85H842.59z M869.67,124.81c10.14,0,18.31-2.01,24.5-6.04
		c6.19-4.03,10.93-8.73,14.21-14.1c2.09-3.13,3.84-6.79,5.26-10.96c1.42-4.17,2.13-8.28,2.13-12.31s-1.68-7.08-5.03-9.17
		c-3.36-2.09-9.51-3.13-18.46-3.13h-16.11c-8.36,0-15.29,1.57-20.81,4.7c-5.52,3.13-10,7.01-13.43,11.64
		c-2.69,3.43-5,7.65-6.94,12.64c-1.94,5-2.91,9.88-2.91,14.66c0,3.88,1.57,6.86,4.7,8.95c3.13,2.09,8.73,3.13,16.78,3.13H869.67z"/>
	<path d="M946.19,153.67l8.95-27.75h82.35c3.28,0,6.19-0.52,8.73-1.57c2.54-1.04,4.55-2.69,6.04-4.92c1.49-2.38,2.24-4.85,2.24-7.38
		c0-1.94-1.87-2.91-5.59-2.91h-50.12c-11.19,0-19.39-1.86-24.61-5.59c-5.22-3.73-7.83-9.17-7.83-16.33c0-4.77,0.93-9.7,2.8-14.77
		c1.86-5.07,4.29-9.7,7.27-13.87c8.95-12.23,23.87-18.35,44.75-18.35h91.74l-8.73,27.3h-81c-6.86,0-11.71,1.79-14.54,5.37
		c-0.9,1.05-1.68,2.35-2.35,3.92s-1.01,3.1-1.01,4.59c0,1.2,0.59,1.98,1.79,2.35c1.19,0.37,3.21,0.56,6.04,0.56h52.14
		c10.59,0,18.16,1.76,22.71,5.26c4.55,3.51,6.83,8.47,6.83,14.88c0,4.03-0.64,8.17-1.9,12.42c-1.27,4.25-2.95,8.62-5.03,13.09
		c-4.03,8.06-9.7,14.02-17.01,17.9c-7.31,3.88-17.6,5.82-30.88,5.82H946.19z"/>
</g>
</svg>
